<?xml version="1.0" encoding="UTF-8"?>
<svg version="1.1" xmlns="http://www.w3.org/2000/svg" width="200" height="200">
<path d="M0 0 C66 0 132 0 200 0 C200 66 200 132 200 200 C134 200 68 200 0 200 C0 134 0 68 0 0 Z " fill="#191E35" transform="translate(0,0)"/>
<path d="M0 0 C0.89203125 0.7528125 1.7840625 1.505625 2.703125 2.28125 C3.60546875 3.0340625 4.5078125 3.786875 5.4375 4.5625 C10.12488759 8.69671763 10.12488759 8.69671763 11.953125 10.78125 C11.953125 11.77125 11.953125 12.76125 11.953125 13.78125 C12.613125 13.78125 13.273125 13.78125 13.953125 13.78125 C15.35546875 15.6875 15.35546875 15.6875 16.890625 18.28125 C17.39464844 19.1165625 17.89867187 19.951875 18.41796875 20.8125 C22.06480888 27.86491348 23.43514919 33.57201293 23.265625 41.53125 C23.24653076 42.85177368 23.24653076 42.85177368 23.22705078 44.19897461 C22.84433664 61.40687785 17.74096381 74.22103535 5.265625 86.40625 C-2.07864126 92.06172776 -10.15025812 96.26054188 -19.046875 98.78125 C-18.90579753 97.32244891 -18.75885085 95.86421449 -18.609375 94.40625 C-18.48755859 93.18808594 -18.48755859 93.18808594 -18.36328125 91.9453125 C-18.046875 89.78125 -18.046875 89.78125 -17.046875 87.78125 C-16.19469306 74.04801033 -17.2566069 61.02226105 -26.046875 49.78125 C-27.30665379 48.72131563 -28.59774393 47.69710595 -29.921875 46.71875 C-32.2201534 44.96599702 -32.95000836 44.29987229 -33.48828125 41.41796875 C-33.48477361 39.16255303 -33.35937727 37.0134091 -33.046875 34.78125 C-28.50110452 32.16758411 -25.12223474 31.38115085 -19.8984375 31.26953125 C-19.24104584 31.25158005 -18.58365417 31.23362885 -17.90634155 31.21513367 C-15.82824928 31.16140563 -13.75038153 31.12725875 -11.671875 31.09375 C-10.25387524 31.06054347 -8.83590499 31.02605076 -7.41796875 30.99023438 C-3.9611532 30.90570349 -0.50425862 30.83871432 2.953125 30.78125 C-0.5279614 28.91589317 -3.39649622 27.43815329 -7.359375 27.19140625 C-8.12507813 27.12888672 -8.89078125 27.06636719 -9.6796875 27.00195312 C-11.25755739 26.89650142 -12.8356919 26.79493707 -14.4140625 26.69726562 C-19.74402401 26.25310217 -22.9218616 25.26503535 -27.046875 21.78125 C-27.046875 21.12125 -27.046875 20.46125 -27.046875 19.78125 C-39.58525507 17.50154453 -49.55675933 18.60084044 -60.58203125 25.328125 C-66.8636675 31.5798961 -68.56860283 38.47018009 -68.68607807 47.18306541 C-68.68895263 49.3385154 -68.66848947 51.4930903 -68.6484375 53.6484375 C-68.65395184 55.17482632 -68.66208915 56.70120767 -68.67269897 58.22756958 C-68.69545011 62.22447772 -68.69142206 66.22083621 -68.67889404 70.21777344 C-68.6605084 76.60510437 -68.67088639 82.99211207 -68.70475388 89.37936783 C-68.71077379 91.58836614 -68.69770593 93.79664326 -68.68276978 96.00558472 C-68.67452301 106.4619025 -69.36510086 116.87374127 -75.484375 125.71875 C-76.06058594 126.57339844 -76.63679688 127.42804688 -77.23046875 128.30859375 C-80.76549889 133.12079607 -84.13431591 136.90098891 -88.921875 140.53125 C-90.43394531 141.69914062 -90.43394531 141.69914062 -91.9765625 142.890625 C-95.17625601 144.86091973 -97.37734949 145.28228131 -101.046875 145.78125 C-101.14073034 131.94165671 -101.21078763 118.10211349 -101.25412369 104.26226616 C-101.27493079 97.83472472 -101.30312244 91.40739823 -101.34863281 84.97998047 C-101.39233614 78.76836176 -101.41606373 72.55694883 -101.42638397 66.34518814 C-101.43373154 63.98430267 -101.44807872 61.62342749 -101.46979523 59.26263046 C-101.67099688 36.467782 -98.55761074 19.63792496 -82.046875 2.78125 C-81.56605469 2.25402344 -81.08523437 1.72679687 -80.58984375 1.18359375 C-60.28841658 -17.26757677 -21.32345992 -15.52785286 0 0 Z " fill="#DE217D" transform="translate(139.046875,32.21875)"/>
<path d="M0 0 C1 2 1 2 0.45660686 3.99435997 C0.02740051 5.20218856 0.02740051 5.20218856 -0.41047668 6.43441772 C-2.17881495 12.05793915 -2.44101109 17.18708568 -2.43237305 23.04931641 C-2.44766052 24.63158524 -2.44766052 24.63158524 -2.46325684 26.24581909 C-2.49321018 29.69778883 -2.50262584 33.14948027 -2.51171875 36.6015625 C-2.5285785 39.00866607 -2.54673047 41.41576091 -2.56611633 43.82284546 C-2.61348142 50.1323168 -2.64337811 56.4417527 -2.66955566 62.75134277 C-2.69942929 69.20018508 -2.74593623 75.64890549 -2.79101562 82.09765625 C-2.87689527 94.73170437 -2.94487432 107.36578215 -3 120 C-0.03 119.505 -0.03 119.505 3 119 C3 119.66 3 120.32 3 121 C2.38125 121.28875 1.7625 121.5775 1.125 121.875 C-1.13325765 122.93720042 -1.13325765 122.93720042 -3 125 C-5 123 -5 123 -5.23606491 120.99587059 C-5.22944462 120.16742952 -5.22282433 119.33898846 -5.21600342 118.48544312 C-5.21322891 117.5350415 -5.21045441 116.58463989 -5.20759583 115.60543823 C-5.19419662 114.55921295 -5.18079742 113.51298767 -5.16699219 112.43505859 C-5.16074326 111.33570984 -5.15449432 110.23636108 -5.14805603 109.10369873 C-5.12448682 105.45179067 -5.08610018 101.8002086 -5.046875 98.1484375 C-5.02578381 95.61455777 -5.00530435 93.08067288 -4.9854126 90.54678345 C-4.94131635 85.22527667 -4.8901373 79.90390245 -4.83349609 74.58251953 C-4.7682837 68.44448799 -4.71716784 62.30646104 -4.67355418 56.1682409 C-4.63113909 50.25536852 -4.57777704 44.34263163 -4.51981354 38.42988968 C-4.49628199 35.91896664 -4.47558336 33.40801537 -4.45778656 30.89704514 C-4.43142369 27.37829846 -4.39261835 23.85989843 -4.35058594 20.34130859 C-4.34528366 19.3072287 -4.33998138 18.2731488 -4.33451843 17.20773315 C-4.25146274 11.49102582 -3.79267919 6.45019904 -2 1 C-1.34 0.67 -0.68 0.34 0 0 Z " fill="#371037" transform="translate(41,58)"/>
<path d="M0 0 C1.60170888 4.0042722 0.34040384 7.05325536 -1 11 C-1.33 11.33 -1.66 11.66 -2 12 C-3.09713367 17.80917704 -3.16983451 23.53465118 -3.20532227 29.43334961 C-3.21522186 30.4584967 -3.22512146 31.4836438 -3.23532104 32.53985596 C-3.26677646 35.91066215 -3.29163012 39.28148241 -3.31640625 42.65234375 C-3.33698957 44.99646866 -3.3579864 47.34058998 -3.37937927 49.68470764 C-3.43445763 55.84132974 -3.4839295 61.99798455 -3.53222656 68.15466309 C-3.58254576 74.44233089 -3.63817735 80.72995145 -3.69335938 87.01757812 C-3.80076674 99.34501169 -3.90225014 111.67248634 -4 124 C-4.33 124 -4.66 124 -5 124 C-5.09385534 110.16040671 -5.16391263 96.32086349 -5.20724869 82.48101616 C-5.22805579 76.05347472 -5.25624744 69.62614823 -5.30175781 63.19873047 C-5.34546114 56.98711176 -5.36918873 50.77569883 -5.37950897 44.56393814 C-5.38685654 42.20305267 -5.40120372 39.84217749 -5.42292023 37.48138046 C-5.65394391 11.30788782 -5.65394391 11.30788782 0 0 Z " fill="#9F256A" transform="translate(43,54)"/>
<path d="M0 0 C0.33 0 0.66 0 1 0 C1.28571429 8.57142857 1.28571429 8.57142857 -1 12 C-0.34 12 0.32 12 1 12 C0.67 13.32 0.34 14.64 0 16 C-0.33 15.34 -0.66 14.68 -1 14 C-4.12474627 15.63473516 -4.12474627 15.63473516 -4.6875 18.125 C-4.790625 18.74375 -4.89375 19.3625 -5 20 C-5.99 20 -6.98 20 -8 20 C-8.13535156 20.87785156 -8.13535156 20.87785156 -8.2734375 21.7734375 C-9.65507611 26.00749131 -13.45266968 28.51185488 -17 31 C-19.38793262 32.02403852 -21.42817227 32.5177823 -24 33 C-20.84884322 29.72764488 -17.57449082 26.7974276 -14 24 C-13.34 24 -12.68 24 -12 24 C-11.731875 23.43410156 -11.46375 22.86820313 -11.1875 22.28515625 C-9.93632229 19.8774623 -8.52050134 17.68404073 -7 15.4375 C-6.484375 14.67308594 -5.96875 13.90867188 -5.4375 13.12109375 C-4.963125 12.42113281 -4.48875 11.72117188 -4 11 C-2.20446585 8.30669878 -1.57303539 6.8539399 -0.875 3.8125 C-0.441875 1.9253125 -0.441875 1.9253125 0 0 Z " fill="#3D173E" transform="translate(68,144)"/>
<path d="M0 0 C1.04028969 3.38094149 1.15672777 6.47362528 1 10 C0.67 10.33 0.34 10.66 0 11 C-0.12391682 13.11605096 -0.17799906 15.23621283 -0.20532227 17.35571289 C-0.21522186 18.01910172 -0.22512146 18.68249054 -0.23532104 19.36598206 C-0.26701737 21.56816995 -0.29172534 23.77037945 -0.31640625 25.97265625 C-0.33696878 27.49580968 -0.35796505 29.01895731 -0.37937927 30.542099 C-0.43467247 34.55831214 -0.48404963 38.57457738 -0.53222656 42.59088135 C-0.58238882 46.68628599 -0.63810236 50.78161461 -0.69335938 54.87695312 C-0.80102954 62.91790455 -0.90245467 70.95891941 -1 79 C-1.66 79 -2.32 79 -3 79 C-2.91557844 69.43781269 -2.820688 59.87580303 -2.71247292 50.31385517 C-2.66255104 45.8737379 -2.61622064 41.43364394 -2.578125 36.9934082 C-2.54122028 32.70743512 -2.49484624 28.42165906 -2.44193649 24.13585472 C-2.4234201 22.50165454 -2.40830197 20.86741216 -2.39665604 19.23314857 C-2.37974628 16.94209288 -2.35070039 14.6514857 -2.31884766 12.3605957 C-2.30552399 11.05709671 -2.29220032 9.75359772 -2.2784729 8.41059875 C-2.01379432 5.16894598 -1.39879037 2.9115006 0 0 Z " fill="#4C1540" transform="translate(72,65)"/>
<path d="M0 0 C1.14678613 3.44035839 1.09510788 6.02698429 1.0534668 9.65527344 C1.04707184 10.32721741 1.04067688 10.99916138 1.03408813 11.69146729 C1.01129758 13.9142037 0.98067678 16.13674544 0.94921875 18.359375 C0.92997937 19.90773295 0.9109238 21.45609319 0.89204407 23.00445557 C0.85104894 26.25270568 0.80583378 29.50086633 0.75805664 32.74902344 C0.69762641 36.89924189 0.65062241 41.04948993 0.60722637 45.19991684 C0.57174481 48.40002557 0.52752124 51.5999707 0.48087502 54.79993439 C0.45991276 56.32920743 0.44198617 57.85852535 0.4272213 59.38787079 C0.40548577 61.53453718 0.37155335 63.68069495 0.3347168 65.82714844 C0.31837692 67.04609802 0.30203705 68.26504761 0.28520203 69.52093506 C-0.02507389 73.30586632 -0.84362487 76.39569234 -2 80 C-2.33 80 -2.66 80 -3 80 C-3.09765625 73.84765625 -3.09765625 73.84765625 -3 72 C-2.505 71.505 -2.505 71.505 -2 71 C-1.88124929 68.82784762 -1.83255447 66.65184716 -1.81054688 64.4765625 C-1.80225357 63.79527283 -1.79396027 63.11398315 -1.78541565 62.41204834 C-1.76798081 60.92842974 -1.75282346 59.44478307 -1.73963928 57.96112061 C-1.7186762 55.61674666 -1.69164915 53.27251398 -1.66296387 50.92822266 C-1.60317095 45.95220218 -1.55105242 40.97611683 -1.5 36 C-1.44086595 30.23616076 -1.37864682 24.47239129 -1.30812073 18.7086792 C-1.28145219 16.39255997 -1.26069444 14.07643409 -1.2401123 11.76025391 C-1.22351585 10.34797833 -1.2066446 8.93570595 -1.18945312 7.5234375 C-1.17692505 6.28513184 -1.16439697 5.04682617 -1.15148926 3.77099609 C-1 1 -1 1 0 0 Z " fill="#BC2E78" transform="translate(70,67)"/>
<path d="M0 0 C9.05015498 -0.27150465 17.32925644 -0.51334693 25 5 C25 5.33 25 5.66 25 6 C8.665 6.495 8.665 6.495 -8 7 C-8 6.34 -8 5.68 -8 5 C-0.74 4.67 6.52 4.34 14 4 C9.13482528 2.60995008 4.94441643 1.60543875 0 1 C0 0.67 0 0.34 0 0 Z " fill="#45163F" transform="translate(118,58)"/>
<path d="M0 0 C0.99 0.33 1.98 0.66 3 1 C3.33 2.98 3.66 4.96 4 7 C4.66 7 5.32 7 6 7 C5.91782813 11.08407827 5.80511389 15.16680088 5.6875 19.25 C5.66494141 20.38953125 5.64238281 21.5290625 5.61914062 22.703125 C5.38211666 30.28789196 4.82000109 37.87594342 2 45 C1.01 45.66 0.02 46.32 -1 47 C-0.79503906 46.20335937 -0.59007812 45.40671875 -0.37890625 44.5859375 C-0.10949219 43.52632812 0.15992188 42.46671875 0.4375 41.375 C0.70433594 40.33085938 0.97117188 39.28671875 1.24609375 38.2109375 C2.75219498 31.7963509 3.21077314 25.75309541 3.25 19.1875 C3.270625 18.33607422 3.29125 17.48464844 3.3125 16.60742188 C3.34939962 10.55127163 2.25677118 5.61384594 0 0 Z " fill="#351237" transform="translate(158,55)"/>
<path d="M0 0 C5.26959309 6.22770093 5.26916491 12.60118465 5.125 20.375 C5.11597656 21.30183594 5.10695312 22.22867188 5.09765625 23.18359375 C5.07422937 25.45600077 5.04142748 27.7278618 5 30 C4.67 30 4.34 30 4 30 C3.34 22.74 2.68 15.48 2 8 C1.01 8 0.02 8 -1 8 C-0.67 5.36 -0.34 2.72 0 0 Z " fill="#B0276F" transform="translate(157,54)"/>
<path d="M0 0 C-0.53109375 0.32613281 -1.0621875 0.65226562 -1.609375 0.98828125 C-6.07122822 3.73960723 -6.07122822 3.73960723 -10.3125 6.8125 C-12 8 -12 8 -15 8 C-15.66 9.32 -16.32 10.64 -17 12 C-17 7.8931688 -15.86423167 6.93409098 -13 4 C-4.69601545 -1.72898751 -4.69601545 -1.72898751 0 0 Z " fill="#3F163C" transform="translate(91,53)"/>
<path d="M0 0 C2 1 2 1 3.1171875 3.6015625 C4.08768179 7.33753608 4.19770391 10.52169264 4.125 14.375 C4.10695313 15.62023437 4.08890625 16.86546875 4.0703125 18.1484375 C4.04710938 19.08945313 4.02390625 20.03046875 4 21 C3.34 21.33 2.68 21.66 2 22 C1.34 14.74 0.68 7.48 0 0 Z " fill="#BE2C78" transform="translate(121,96)"/>
<path d="M0 0 C0.92039062 0.29003906 0.92039062 0.29003906 1.859375 0.5859375 C0.90469936 2.21308906 -0.05449348 3.83759096 -1.015625 5.4609375 C-1.54929687 6.36585937 -2.08296875 7.27078125 -2.6328125 8.203125 C-4.140625 10.5859375 -4.140625 10.5859375 -6.140625 12.5859375 C-6.76131466 4.51697198 -6.76131466 4.51697198 -4.390625 0.9609375 C-2.140625 -0.4140625 -2.140625 -0.4140625 0 0 Z " fill="#341739" transform="translate(48.140625,43.4140625)"/>
<path d="M0 0 C0.81919922 -0.01611328 1.63839844 -0.03222656 2.48242188 -0.04882812 C4.85546875 -0.05078125 4.85546875 -0.05078125 8.8125 0.3125 C9.4725 1.3025 10.1325 2.2925 10.8125 3.3125 C10.10738281 3.15136719 9.40226562 2.99023438 8.67578125 2.82421875 C0.90335093 1.43514867 -6.67946656 2.00233587 -14.1875 4.3125 C-14.1875 3.6525 -14.1875 2.9925 -14.1875 2.3125 C-9.49299142 -0.07760478 -5.14289191 -0.02052231 0 0 Z " fill="#B82A76" transform="translate(99.1875,48.6875)"/>
<path d="M0 0 C0.33 0 0.66 0 1 0 C1.33 2.31 1.66 4.62 2 7 C3.65 7 5.3 7 7 7 C4.01353231 8.99097846 1.40312738 9.94124926 -2 11 C-1.85892253 9.54119891 -1.71197585 8.08296449 -1.5625 6.625 C-1.48128906 5.81289062 -1.40007812 5.00078125 -1.31640625 4.1640625 C-1 2 -1 2 0 0 Z " fill="#B22A72" transform="translate(122,120)"/>
<path d="M0 0 C0.33 0 0.66 0 1 0 C0.38909774 6.47556391 0.38909774 6.47556391 -1.4375 8.9375 C-3 10 -3 10 -5 10 C-5 10.66 -5 11.32 -5 12 C-5.66 11.67 -6.32 11.34 -7 11 C-5.85845641 9.16399255 -4.71165684 7.33125195 -3.5625 5.5 C-2.92441406 4.4790625 -2.28632813 3.458125 -1.62890625 2.40625 C-0.82259766 1.21515625 -0.82259766 1.21515625 0 0 Z " fill="#481842" transform="translate(156,102)"/>
<path d="M0 0 C1.30674498 4.16870054 0.3976763 6.88461978 -1 11 C-1.33 11.33 -1.66 11.66 -2 12 C-2.36760731 14.32817964 -2.70241581 16.6618385 -3 19 C-3.33 19 -3.66 19 -4 19 C-4.53699151 11.88486245 -2.69707634 6.55004254 0 0 Z " fill="#B42C75" transform="translate(43,54)"/>
<path d="M0 0 C0 3.97378549 -1.34753657 5.12649795 -4 8 C-6.25 9.3125 -6.25 9.3125 -8 10 C-8.66 9.34 -9.32 8.68 -10 8 C-9.44570312 7.59007813 -8.89140625 7.18015625 -8.3203125 6.7578125 C-7.59585938 6.21898438 -6.87140625 5.68015625 -6.125 5.125 C-5.04605469 4.32449219 -5.04605469 4.32449219 -3.9453125 3.5078125 C-1.91747368 2.00126838 -1.91747368 2.00126838 0 0 Z " fill="#39173B" transform="translate(148,114)"/>
<path d="M0 0 C0.33 0 0.66 0 1 0 C1.20606587 5.76984447 0.80464178 10.49109352 -1 16 C-1.99 16.66 -2.98 17.32 -4 18 C-3.79503906 17.20335938 -3.59007812 16.40671875 -3.37890625 15.5859375 C-3.10949219 14.52632812 -2.84007812 13.46671875 -2.5625 12.375 C-2.29566406 11.33085938 -2.02882812 10.28671875 -1.75390625 9.2109375 C-1.03547461 6.15108876 -0.48023284 3.1051949 0 0 Z " fill="#501542" transform="translate(161,84)"/>
<path d="M0 0 C0.66 0 1.32 0 2 0 C2 0.66 2 1.32 2 2 C2.99 2.33 3.98 2.66 5 3 C4.03114628 4.68496298 3.03013277 6.35178756 2 8 C1.67 8 1.34 8 1 8 C0.67 5.36 0.34 2.72 0 0 Z " fill="#CC267A" transform="translate(59,153)"/>
<path d="M0 0 C0.99 0.33 1.98 0.66 3 1 C0.69 2.65 -1.62 4.3 -4 6 C-4.33 5.01 -4.66 4.02 -5 3 C-3.35 2.67 -1.7 2.34 0 2 C0 1.34 0 0.68 0 0 Z " fill="#C22B79" transform="translate(49,170)"/>
<path d="M0 0 C1.31554985 0.4495045 2.62738358 0.90989716 3.9375 1.375 C5.03384766 1.75785156 5.03384766 1.75785156 6.15234375 2.1484375 C8 3 8 3 9 5 C8.01 5 7.02 5 6 5 C6 4.34 6 3.68 6 3 C4.68 3.33 3.36 3.66 2 4 C2 3.34 2 2.68 2 2 C1.34 2 0.68 2 0 2 C0 1.34 0 0.68 0 0 Z " fill="#B72974" transform="translate(128,27)"/>
</svg>
